<svg width="48" height="48" viewBox="0 0 48 48" fill="none" xmlns="http://www.w3.org/2000/svg">
<path d="M48 0H0V48H48V0Z" fill="#323238"/>
<path d="M24.042 35.296C16.229 35.296 12 30.42 12 24.125C12 17.398 16.762 12 25.276 12C31.49 12 36 16.038 36 21.601C36 30.313 25.67 32.613 26.188 27.643C25.478 28.751 24.334 29.997 22.135 29.997C19.619 29.997 18.055 28.155 18.055 25.19C18.055 20.746 20.976 16.991 24.434 16.991C26.093 16.991 27.234 17.867 27.711 19.212L28.175 17.58H30.513C30.269 18.412 28.192 26.107 28.192 26.107C27.544 28.773 29.542 28.82 31.314 27.404C34.643 24.824 34.815 18.077 30.316 15.263C25.495 12.372 14.521 14.161 14.521 23.956C14.521 29.567 18.471 33.337 24.35 33.337C27.786 33.337 29.892 32.407 31.645 31.389L32.822 33.087C31.111 34.053 28.361 35.296 24.042 35.296ZM21.698 20.991C20.983 22.331 20.521 24.067 20.521 25.415C20.521 29.025 24.043 29.048 25.773 25.654C26.485 24.26 26.944 22.483 26.944 21.125C26.944 18.208 23.449 17.691 21.698 20.991V20.991Z" fill="white"/>
</svg>
